<svg width="38" height="29" viewBox="0 0 38 29" fill="none" xmlns="http://www.w3.org/2000/svg">
<path d="M0 0.164551V4.65897C2.94678 4.6642 5.68634 5.32845 8.05262 6.42526C8.49587 6.63077 8.92574 6.8513 9.34216 7.08624C10.2893 6.552 11.309 6.09112 12.3899 5.7157C14.3288 5.04485 16.4635 4.65897 18.7184 4.65897C21.6786 4.65897 24.4302 5.3245 26.8057 6.42526C27.249 6.63077 27.6792 6.8513 28.095 7.08624C29.0425 6.552 30.0621 6.09112 31.143 5.7157C33.0721 5.0488 35.1948 4.66283 37.4371 4.65897V0.164551H0Z" fill="#0082FF"/>
<path d="M23.4453 17.2091C23.4459 18.3446 23.7373 19.387 24.2393 20.2613C24.7413 21.1337 25.4544 21.8282 26.2878 22.241C26.8441 22.5173 27.4532 22.6696 28.0989 22.6703C29.0672 22.669 29.9559 22.3277 30.7001 21.7383C31.4435 21.1488 32.0352 20.3126 32.3876 19.3339C32.6225 18.6814 32.7525 17.9666 32.7528 17.2092C32.7528 16.6676 32.6567 16.0933 32.4538 15.4921C32.2517 14.8908 31.9424 14.2633 31.5278 13.6397C30.7384 12.4477 29.5652 11.2734 28.0986 10.2855C26.9744 11.0443 26.021 11.9095 25.2829 12.812C24.4968 13.7696 23.9577 14.7648 23.6805 15.691C23.5214 16.2218 23.4453 16.7273 23.4453 17.2091Z" fill="#0082FF"/>
<path d="M32.6503 10.8477C33.6263 12.041 34.3677 13.3505 34.7892 14.7479C35.0289 15.5454 35.1617 16.3732 35.1617 17.2082C35.1626 18.9201 34.716 20.523 33.9542 21.8449C33.1926 23.1683 32.116 24.2178 30.846 24.8487C30 25.2688 29.0676 25.5011 28.095 25.5011C26.6357 25.5011 25.2692 24.978 24.1427 24.0833C23.0158 23.1892 22.1214 21.9264 21.5842 20.4363C21.2259 19.4432 21.0279 18.3489 21.0282 17.2082C21.0282 15.9551 21.3265 14.7231 21.8386 13.5724C22.3515 12.4191 23.0781 11.3367 23.973 10.3442C24.4384 9.82955 24.9501 9.33932 25.503 8.87518C25.1336 8.71635 24.7543 8.56738 24.3647 8.43206C22.6454 7.83741 20.7378 7.49091 18.7183 7.49091C16.2413 7.48954 13.9322 8.01331 11.9329 8.87449C12.6634 9.48631 13.322 10.1479 13.8975 10.8477C14.873 12.041 15.6146 13.3505 16.0361 14.7479C16.2761 15.5454 16.4089 16.3732 16.4089 17.2082C16.4092 18.9201 15.9632 20.523 15.2011 21.8449C14.4392 23.1683 13.3628 24.2178 12.0932 24.8487C11.2469 25.2688 10.3145 25.5011 9.34216 25.5011C7.88262 25.5011 6.51639 24.978 5.38991 24.0833C4.26263 23.1892 3.36831 21.9264 2.83103 20.4363C2.47275 19.4432 2.27503 18.3489 2.27533 17.2082C2.27533 15.9551 2.57343 14.7231 3.08519 13.5724C3.59835 12.4191 4.325 11.3367 5.2202 10.3442C5.68524 9.82955 6.197 9.33932 6.74993 8.87518C6.38017 8.71635 6.00148 8.56738 5.61168 8.43206C3.90216 7.84135 2.00683 7.49477 0 7.49091V28.9911H37.4371V7.49091C34.9732 7.49477 32.6761 8.01735 30.686 8.87449C31.4164 9.48631 32.0751 10.148 32.6503 10.8477Z" fill="#0082FF"/>
<path d="M4.6875 17.2091C4.68808 18.3446 4.97947 19.387 5.4815 20.2613C5.98347 21.1337 6.6966 21.8282 7.5303 22.241C8.0863 22.5173 8.69539 22.6696 9.3414 22.6703C10.3091 22.669 11.198 22.3277 11.9422 21.7383C12.6859 21.1488 13.2774 20.3126 13.6297 19.3339C13.8649 18.6814 13.9949 17.9666 13.9952 17.2092C13.9952 16.6676 13.8985 16.0933 13.6962 15.4921C13.4938 14.8908 13.1845 14.2633 12.7703 13.6397C11.9805 12.4477 10.8071 11.2734 9.34081 10.2855C8.21653 11.0443 7.2632 11.9095 6.52543 12.812C5.73932 13.7696 5.20014 14.7648 4.92302 15.691C4.76362 16.2218 4.6875 16.7273 4.6875 17.2091Z" fill="#0082FF"/>
</svg>
