<svg width="27" height="21" viewBox="0 0 27 21" fill="none" xmlns="http://www.w3.org/2000/svg">
<path d="M0 0V3.24141C2.12524 3.24519 4.10104 3.72425 5.80763 4.51528C6.1273 4.66349 6.43733 4.82254 6.73765 4.99199C7.42077 4.60668 8.15615 4.27429 8.93572 4.00354C10.3341 3.51971 11.8736 3.24141 13.4999 3.24141C15.6348 3.24141 17.6193 3.7214 19.3325 4.51528C19.6522 4.66349 19.9625 4.82254 20.2624 4.99199C20.9457 4.60668 21.6811 4.27429 22.4606 4.00354C23.8519 3.52256 25.3828 3.2442 27 3.24141V0H0Z" fill="#0082FF"/>
<path d="M16.9072 12.2932C16.9076 13.1121 17.1178 13.8639 17.4799 14.4944C17.8419 15.1236 18.3562 15.6245 18.9573 15.9222C19.3585 16.1215 19.7978 16.2313 20.2634 16.2318C20.9618 16.2308 21.6027 15.9847 22.1394 15.5596C22.6756 15.1345 23.1023 14.5314 23.3565 13.8256C23.5259 13.355 23.6197 12.8395 23.6199 12.2932C23.6199 11.9027 23.5505 11.4884 23.4042 11.0548C23.2584 10.6212 23.0354 10.1686 22.7364 9.71887C22.167 8.85921 21.3209 8.0123 20.2632 7.2998C19.4524 7.84706 18.7648 8.471 18.2325 9.12192C17.6656 9.81257 17.2767 10.5303 17.0769 11.1983C16.9621 11.5811 16.9072 11.9457 16.9072 12.2932Z" fill="#0082FF"/>
<path d="M23.5477 7.70462C24.2516 8.56527 24.7863 9.50965 25.0903 10.5175C25.2631 11.0927 25.359 11.6897 25.359 12.2919C25.3596 13.5265 25.0375 14.6825 24.4881 15.636C23.9388 16.5904 23.1623 17.3473 22.2464 17.8023C21.6363 18.1053 20.9638 18.2728 20.2624 18.2728C19.2099 18.2728 18.2244 17.8955 17.412 17.2503C16.5992 16.6055 15.9541 15.6947 15.5667 14.62C15.3083 13.9038 15.1655 13.1146 15.1657 12.2919C15.1657 11.3881 15.3809 10.4996 15.7502 9.66969C16.1201 8.83794 16.6441 8.05731 17.2896 7.34153C17.6252 6.97034 17.9943 6.61678 18.393 6.28204C18.1266 6.16749 17.853 6.06006 17.5721 5.96246C16.3321 5.53359 14.9563 5.28369 13.4998 5.28369C11.7134 5.2827 10.048 5.66046 8.60613 6.28155C9.13294 6.7228 9.60797 7.19994 10.023 7.70462C10.7265 8.56527 11.2614 9.50965 11.5654 10.5175C11.7384 11.0927 11.8343 11.6897 11.8343 12.2919C11.8345 13.5265 11.5128 14.6825 10.9631 15.636C10.4137 16.5904 9.6374 17.3473 8.72172 17.8023C8.11137 18.1053 7.43891 18.2728 6.73765 18.2728C5.68502 18.2728 4.69968 17.8955 3.88725 17.2503C3.07425 16.6055 2.42926 15.6947 2.04177 14.62C1.78337 13.9038 1.64077 13.1146 1.64099 12.2919C1.64099 11.3881 1.85598 10.4996 2.22507 9.66969C2.59516 8.83794 3.11923 8.05731 3.76486 7.34153C4.10025 6.97034 4.46934 6.61678 4.86811 6.28204C4.60143 6.16749 4.32832 6.06006 4.0472 5.96246C2.81427 5.53644 1.44734 5.28648 0 5.28369V20.7898H26.9999V5.28369C25.223 5.28648 23.5663 5.66337 22.131 6.28155C22.6578 6.7228 23.1328 7.2 23.5477 7.70462Z" fill="#0082FF"/>
<path d="M3.37988 12.2932C3.3803 13.1121 3.59045 13.8639 3.95252 14.4944C4.31455 15.1236 4.82886 15.6245 5.43014 15.9222C5.83113 16.1215 6.27041 16.2313 6.73631 16.2318C7.4342 16.2308 8.07534 15.9847 8.61207 15.5596C9.14838 15.1345 9.575 14.5314 9.82907 13.8256C9.99872 13.355 10.0925 12.8395 10.0927 12.2932C10.0927 11.9027 10.0229 11.4884 9.87706 11.0548C9.73104 10.6212 9.50797 10.1686 9.20929 9.71887C8.63965 8.85921 7.79337 8.0123 6.73589 7.2998C5.92505 7.84706 5.2375 8.471 4.70541 9.12192C4.13847 9.81257 3.7496 10.5303 3.54974 11.1983C3.43478 11.5811 3.37988 11.9457 3.37988 12.2932Z" fill="#0082FF"/>
</svg>
