<svg width="40" height="63" viewBox="0 0 40 63" fill="none" xmlns="http://www.w3.org/2000/svg">
<path d="M26.1267 37.1901C28.7065 36.9452 31.2057 35.1995 32.9591 32.0599C34.7152 28.9225 35.4302 24.9223 35.1473 21.0615C34.8717 17.1996 33.5917 13.3913 31.4087 10.6367C29.228 7.8779 26.5126 6.63799 23.9341 6.89376C21.3552 7.13877 18.8559 8.8844 17.1021 12.0247C15.3459 15.1608 14.6316 19.1617 14.914 23.023C15.1088 25.7442 15.812 28.4319 16.9689 30.7499L6.20204 50.0025L6.68953 50.6185L9.94248 54.7286L13.3579 59.044L16.2363 53.8971L12.8208 49.5817L14.3912 46.7736L17.9748 51.3015L19.9374 47.7922L16.3538 43.2643L20.7093 35.4759C22.4275 36.7905 24.3097 37.3696 26.1267 37.1901ZM22.578 26.4273C21.7287 25.352 21.2526 23.9246 21.1402 22.4186C21.0345 20.912 21.2994 19.4136 21.9814 18.1896C22.6666 16.9687 23.6036 16.3183 24.6092 16.2156C25.616 16.1238 26.6333 16.5832 27.4836 17.6554C28.3329 18.7307 28.8089 20.158 28.9218 21.6646C29.0275 23.1712 28.7622 24.6704 28.0799 25.895C27.395 27.1152 26.4584 27.7649 25.4529 27.8676C24.4465 27.9601 23.4288 27.4999 22.578 26.4273Z" fill="#0082FF"/>
</svg>
