<svg width="38" height="40" viewBox="0 0 38 40" fill="none" xmlns="http://www.w3.org/2000/svg">
<path d="M16.1483 30.7013H6.92383V32.3682H16.1483V30.7013Z" fill="#0082FF"/>
<path d="M19.5371 23.9404H6.92383V25.6073H19.5371V23.9404Z" fill="#0082FF"/>
<path d="M24.8924 17.1813H6.92383V18.8482H24.8924V17.1813Z" fill="#0082FF"/>
<path d="M21.8912 6.43726H13.4219V8.10415H21.8912V6.43726Z" fill="#0082FF"/>
<path d="M29.7564 36.1447C29.7564 37.0025 29.0377 37.7016 28.1533 37.7016H3.66325C2.77877 37.7016 2.06 37.0026 2.06 36.1447V14.0334H11.8604C12.9441 14.0334 13.8256 13.177 13.8256 12.1245V2.58842H28.1532C29.0376 2.58842 29.7563 3.28627 29.7563 4.14409V15.3792L31.8167 13.3792V4.14402C31.8167 2.18385 30.1731 0.588379 28.1532 0.588379H13.2933C12.2253 0.588379 11.2022 0.999297 10.4478 1.73183L1.17875 10.7318C0.423551 11.4645 0 12.4588 0 13.4948V36.1447C0 38.1061 1.64369 39.7016 3.66325 39.7016H28.1533C30.1731 39.7016 31.8167 38.1061 31.8167 36.1447V26.5796L29.7564 28.5796V36.1447ZM11.9942 3.05931V11.0543C11.9942 11.919 11.6472 12.2553 10.7568 12.2553H2.52218L11.9942 3.05931Z" fill="#0082FF"/>
<path d="M37.7053 16.3828L35.521 14.2621C35.1411 13.8929 34.5249 13.8929 34.1447 14.2621L32.7285 15.637L36.2896 19.094L37.7053 17.7192C38.0855 17.35 38.0855 16.752 37.7053 16.3828Z" fill="#0082FF"/>
<path d="M19.5391 28.4437L18.3252 33.0796L23.0998 31.9007L19.5391 28.4437Z" fill="#0082FF"/>
<path d="M20.2666 27.7368L23.8276 31.1939L35.6427 19.723L32.0817 16.2653L20.2666 27.7368ZM33.4577 19.173L23.1638 29.1674L22.3545 28.381L32.6484 18.3866L33.4577 19.173Z" fill="#0082FF"/>
</svg>
