<svg width="32" height="31" viewBox="0 0 32 31" fill="none" xmlns="http://www.w3.org/2000/svg">
<g clip-path="url(#clip0_762_521)">
<path d="M16 0C7.16362 0 0 6.9397 0 15.5C0 24.0602 7.16362 31 16 31C24.8364 31 32 24.0602 32 15.5C32 6.9397 24.8364 0 16 0ZM24.5781 20.4223L21.6802 23.7646C21.4478 24.0329 21.0532 24.1066 20.7349 23.9411C20.7349 23.9411 19.7881 23.4917 19.0635 23.0741C17.0713 21.9279 14.7159 20.0637 13.002 18.4034C11.2886 16.7436 9.36431 14.4617 8.18069 12.5317C7.75 11.8298 7.28613 10.9131 7.28613 10.9131C7.11525 10.6038 7.19144 10.2225 7.46781 9.99683L10.9185 7.18903C11.2222 6.94352 11.6694 6.96198 11.9497 7.23347L14.6997 9.89754C14.9761 10.1653 14.9996 10.5915 14.7544 10.8852L13.5967 12.2764C13.3667 12.5522 13.3711 12.9472 13.6069 13.2182C13.6069 13.2182 14.4316 14.405 15.7803 15.712C17.1304 17.0194 18.355 17.8179 18.355 17.8179C18.6348 18.0464 19.0425 18.0506 19.3271 17.8283L20.7632 16.7063C21.0669 16.4688 21.5063 16.4915 21.7822 16.7593L24.5333 19.4233C24.813 19.6947 24.8326 20.128 24.5781 20.4223Z" fill="#0082FF"/>
</g>
<defs>
<clipPath id="clip0_762_521">
<rect width="32" height="31" fill="white"/>
</clipPath>
</defs>
</svg>
